name analog
datacolumns 19
datarows 18
range 0.0 0.0085
endheader
time	ground_force_vx	ground_force_vy	ground_force_vz	ground_force_px	ground_force_py	ground_force_pz	l_ground_force_vx	l_ground_force_vy	l_ground_force_vz	l_ground_force_px	l_ground_force_py	l_ground_force_pz	ground_torque_x	ground_torque_y	ground_torque_z	l_ground_torque_x	l_ground_torque_y	l_ground_torque_z
0.0	-0.0	-0.0	-0.0	0.0892105102539062	23.6675968170166	-246.00360107421875	0.3070641756057739	-16.71991729736328	-254.77346801757807	-0.0	-0.0	-0.0	-0.0	-0.0	-0.0	74750.421875	13689.5029296875	-1532.8712158203125
0.0005	-0.0	-0.0	-0.0	-0.0136656314134597	23.3933162689209	-246.9268798828125	-0.0887107849121093	-16.84201431274414	-254.2643280029297	-0.0	-0.0	-0.0	-0.0	-0.0	-0.0	74888.796875	13954.0224609375	-1565.0753173828125
0.001	-0.0	-0.0	-0.0	-0.1650649309158325	23.21393585205078	-245.02755737304688	-0.2792707085609436	-17.08697509765625	-256.1156311035156	-0.0	-0.0	-0.0	-0.0	-0.0	-0.0	75167.671875	14037.876953125	-1711.3193359375
0.0015	-0.0	-0.0	-0.0	-0.1436757296323776	23.358732223510746	-246.2184600830078	-0.2661323547363281	-17.093463897705078	-256.8392028808594	-0.0	-0.0	-0.0	-0.0	-0.0	-0.0	75467.9921875	14333.9228515625	-1752.5474853515625
0.002	-0.0	-0.0	-0.0	0.2960661053657532	23.208776473999023	-244.8561248779297	-0.8743866086006165	-16.828447341918945	-256.676513671875	-0.0	-0.0	-0.0	-0.0	-0.0	-0.0	75971.8203125	14470.5595703125	-1933.058837890625
0.0025	-0.0	-0.0	-0.0	0.2514370083808899	23.08833885192871	-244.0223388671875	-0.9758186340332032	-16.809831619262695	-257.5359802246094	-0.0	-0.0	-0.0	-0.0	-0.0	-0.0	75879.40625	14519.3212890625	-1982.81103515625
0.003	-0.0	-0.0	-0.0	0.4460525512695312	23.256851196289062	-244.0228271484375	-1.2128028869628906	-17.352182388305664	-259.79278564453125	-0.0	-0.0	-0.0	-0.0	-0.0	-0.0	76236.515625	14697.3837890625	-2045.9864501953125
0.0035	-0.0	-0.0	-0.0	0.0415751300752162	23.084774017333984	-244.8496551513672	-1.4074627161026	-16.88129997253418	-259.419677734375	-0.0	-0.0	-0.0	-0.0	-0.0	-0.0	76500.6875	14965.4619140625	-2141.099609375
0.004	-0.0	-0.0	-0.0	-0.1902773976325988	23.096620559692383	-242.6580810546875	-1.892722725868225	-17.169870376586914	-261.21124267578125	-0.0	-0.0	-0.0	-0.0	-0.0	-0.0	76588.4609375	15206.630859375	-2186.98779296875
0.0045000000000000005	-0.0	-0.0	-0.0	0.0834066718816757	22.953977584838867	-240.32745361328125	-1.8572264909744265	-17.352373123168945	-262.33135986328125	-0.0	-0.0	-0.0	-0.0	-0.0	-0.0	76696.359375	15232.2763671875	-2262.101318359375
0.005	-0.0	-0.0	-0.0	-0.2010172605514526	22.64476585388184	-239.0580902099609	-1.826890230178833	-17.18684959411621	-262.2565612792969	-0.0	-0.0	-0.0	-0.0	-0.0	-0.0	77122.625	15244.8955078125	-2198.94921875
0.0055	-0.0	-0.0	-0.0	-0.4460525512695312	22.6280460357666	-239.6435546875	-2.1399407386779785	-17.170442581176758	-261.8637084960937	-0.0	-0.0	-0.0	-0.0	-0.0	-0.0	77505.3828125	15305.6513671875	-2335.419921875
0.006	-0.0	-0.0	-0.0	-0.71368408203125	22.52987670898437	-238.2306365966797	-1.9152870178222656	-17.139720916748047	-263.1802673339844	-0.0	-0.0	-0.0	-0.0	-0.0	-0.0	77726.7421875	15380.080078125	-2242.673828125
0.006500000000000001	-0.0	-0.0	-0.0	-0.7401024103164673	22.329805374145508	-237.37875366210935	-2.311663150787353	-17.181148529052734	-264.1230163574219	-0.0	-0.0	-0.0	-0.0	-0.0	-0.0	77884.765625	15590.990234375	-2265.67431640625
0.007	-0.0	-0.0	-0.0	-0.8132137656211853	22.22439956665039	-236.46417236328125	-2.3432466983795166	-17.077653884887695	-263.7541809082031	-0.0	-0.0	-0.0	-0.0	-0.0	-0.0	78084.3125	15561.640625	-2440.147216796875
0.0075	-0.0	-0.0	-0.0	-0.7658351063728333	22.13131332397461	-234.1582946777344	-2.451874256134033	-16.869441986083984	-265.5589294433594	-0.0	-0.0	-0.0	-0.0	-0.0	-0.0	78326.90625	15518.796875	-2202.81640625
0.008	-0.0	-0.0	-0.0	-0.8921051025390625	22.020103454589844	-234.1582946777344	-2.3628358840942383	-17.603450775146484	-267.4501342773437	-0.0	-0.0	-0.0	-0.0	-0.0	-0.0	78886.3046875	15674.4375	-2218.5302734375
0.0085	-0.0	-0.0	-0.0	-1.5261675119400024	21.527387619018555	-232.74557495117188	-2.2597768306732178	-17.34819793701172	-268.6814270019531	-0.0	-0.0	-0.0	-0.0	-0.0	-0.0	78880.328125	15701.802734375	-2301.05078125
